<?xml version="1.0" standalone="no"?>
<!DOCTYPE svg PUBLIC "-//W3C//DTD SVG 20010904//EN"
 "http://www.w3.org/TR/2001/REC-SVG-20010904/DTD/svg10.dtd">
<svg version="1.0" xmlns="http://www.w3.org/2000/svg"
 width="512.000000pt" height="512.000000pt" viewBox="0 0 512.000000 512.000000"
 preserveAspectRatio="xMidYMid meet">
<metadata>
Created by potrace 1.11, written by Peter Selinger 2001-2013
</metadata>
<g transform="translate(0.000000,512.000000) scale(0.100000,-0.100000)"
fill="#000000" stroke="none">
<path d="M2425 4949 c-81 -13 -107 -19 -160 -36 -74 -24 -172 -72 -239 -116
-69 -46 -200 -168 -224 -209 -16 -28 -18 -28 -109 -28 l-93 0 0 40 0 40 -336
0 c-231 0 -349 -4 -376 -12 -22 -6 -62 -31 -88 -55 -86 -77 -81 8 -78 -1234 3
-1016 4 -1096 20 -1124 28 -49 87 -103 124 -115 54 -18 56 -18 282 -19 l212
-1 0 -91 c0 -94 -7 -121 -37 -135 -10 -5 -146 -11 -303 -14 -247 -4 -290 -7
-321 -23 -151 -75 -185 -275 -64 -386 25 -23 57 -47 73 -54 18 -8 124 -13 319
-17 263 -4 294 -7 310 -23 14 -14 19 -38 21 -116 l4 -99 -101 -4 -101 -3 -260
-262 -260 -261 1 -149 c0 -171 9 -204 62 -247 l39 -31 1817 0 1818 0 37 29
c60 46 68 76 64 252 l-3 153 -257 258 -258 258 -1220 3 -1220 2 0 93 c0 123
-18 182 -72 236 -66 65 -98 71 -402 71 -189 0 -268 4 -286 13 -48 24 -52 103
-7 129 16 9 103 14 312 18 l290 5 46 29 c26 17 62 52 80 80 33 49 34 55 37
168 l4 118 279 0 279 0 0 -160 0 -160 -165 0 c-180 0 -219 -9 -231 -53 -3 -13
-4 -105 -2 -205 3 -158 5 -184 21 -199 17 -17 66 -18 835 -21 449 -1 827 0
840 3 12 3 31 14 42 25 18 18 20 34 20 198 0 97 -3 187 -6 200 -12 44 -49 52
-229 52 l-165 0 0 160 0 160 579 0 c645 0 633 -1 704 68 78 76 72 -30 75 1186
3 1226 7 1159 -70 1234 -69 69 -91 72 -475 72 l-333 0 0 -40 0 -40 -87 0 -88
0 -72 79 c-143 156 -315 256 -518 302 -63 14 -264 19 -330 8z"/>
</g>
</svg>
