<svg xmlns="http://www.w3.org/2000/svg" viewBox="0 0 942 645" width="942" height="645">
	<defs>
		<linearGradient id="grd1" gradientUnits="userSpaceOnUse"  x1="398.787" y1="640.99" x2="544.225" y2="11.03">
			<stop offset="0" stop-color="#ff8f5a"  />
			<stop offset="0.987" stop-color="#ff2f95"  />
		</linearGradient>
	</defs>
	<style>
		tspan { white-space:pre }
		.shp0 { fill: url(#grd1) } 
	</style>
	<g id="1_экран">
		<g id="bg+Человек+фигура">
			<path id="Ellipse 1" class="shp0" d="M406.82 43.77C513.51 2.11 614.19 1.98 698.36 33.25C782.75 64.27 850.64 126.7 896.75 204.27C941 282.62 940.95 366.77 904.82 434.85C868.18 503.94 807.2 556.03 724.1 593.2C680.09 611.92 633.84 624.75 575.03 632.62C517 640.37 446.42 643.18 371.64 639.18C223.24 631.48 56.93 595.35 21.85 513.84C1.98 473.37 14.45 426.98 39.16 380.29C64.28 333.53 101.63 286.48 140.85 243.12C180.48 199.7 221.97 159.96 264.68 126.26C307.8 92.49 352.14 64.76 406.82 43.77L406.82 43.77Z" />
		</g>
	</g>
</svg>